<svg style="overflow: hidden; position: relative;" height="32" version="1.1" width="32" xmlns="http://www.w3.org/2000/svg">
<desc style="-webkit-tap-highlight-color: rgba(0, 0, 0, 0);">Created with Raphaël 2.1.0</desc><defs style="-webkit-tap-highlight-color: rgba(0, 0, 0, 0);"></defs><path style="-webkit-tap-highlight-color: rgba(0, 0, 0, 0);" fill="#333333" stroke="none" d="M16,9.904c-3.366,0-6.096,2.729-6.096,6.096c0,3.366,2.729,6.096,6.096,6.096s6.096-2.729,6.096-6.096S19.366,9.904,16,9.904zM16,20.48c-2.475,0-4.48-2.006-4.48-4.48c0-2.474,2.006-4.48,4.48-4.48c2.475,0,4.48,2.006,4.48,4.48C20.48,18.475,18.475,20.48,16,20.48zM24.576,2.321H7.423c-2.848,0-5.156,2.309-5.156,5.157v17.043c0,2.849,2.309,5.155,5.156,5.155h17.153c2.849,0,5.156-2.309,5.156-5.155V7.479C29.732,4.63,27.425,2.321,24.576,2.321zM22.236,5.394c0-0.605,0.49-1.097,1.097-1.097h3.219c0.605,0,1.097,0.491,1.097,1.097v3.219c0,0.605-0.489,1.097-1.097,1.097h-3.219c-0.604,0-1.097-0.491-1.097-1.097V5.394zM28.637,24.521c0,2.237-1.82,4.06-4.061,4.06H7.423c-2.238,0-4.06-1.82-4.06-4.06V10.879H4.19c0.102-0.5,0.544-0.877,1.075-0.877h3.438c0.53,0,0.974,0.377,1.074,0.877h1.498c1.242-1.146,2.9-1.847,4.724-1.847s3.481,0.701,4.724,1.847h7.912v13.643H28.637L28.637,24.521z"></path></svg>
